<svg xmlns="http://www.w3.org/2000/svg" width="1024" height="1024" viewBox="0 0 1024 1024" version="1.1"><path d="M 586.328 290.500 C 586.333 294.350, 586.513 295.802, 586.730 293.728 C 586.946 291.653, 586.943 288.503, 586.722 286.728 C 586.501 284.952, 586.324 286.650, 586.328 290.500 M 587.320 342 C 587.320 345.575, 587.502 347.038, 587.723 345.250 C 587.945 343.462, 587.945 340.538, 587.723 338.750 C 587.502 336.962, 587.320 338.425, 587.320 342 M 784.147 385.699 C 783.957 398.907, 781.631 416.788, 778.386 430 C 767.049 476.142, 743.876 504.464, 710.468 513.008 C 698.609 516.041, 679.544 515.811, 667.126 512.484 C 639.284 505.025, 619.383 485.692, 605.544 452.659 C 597.836 434.261, 591.085 406.445, 589.387 386.088 C 589.014 381.617, 588.591 378.080, 588.447 378.229 C 588.303 378.378, 587.667 383, 587.034 388.500 C 579.528 453.737, 560.567 492.325, 528.500 507.628 C 517.088 513.074, 507.472 515.057, 492.500 515.053 C 482.537 515.051, 477.631 514.562, 471.500 512.959 C 456.108 508.936, 442.064 500.416, 431.158 488.483 C 410.493 465.872, 395.687 424.304, 394.833 386.500 C 394.697 380.485, 394.522 379.324, 394.306 383 C 393.603 394.906, 390.760 417.140, 388.363 429.473 C 382.770 458.243, 373.562 478.362, 359.157 493.282 C 344.015 508.966, 328.036 515.104, 302.425 515.071 C 253.934 515.010, 223.292 486.748, 211.612 431.313 C 210.243 424.816, 208.610 413.650, 207.983 406.500 C 207.356 399.350, 206.488 390.350, 206.055 386.500 C 205.350 380.227, 205.254 380.001, 205.134 384.318 C 204.895 392.927, 201.865 411.203, 198.473 424.500 C 185.883 473.855, 159.375 503.444, 119.500 512.653 C 113.443 514.051, 107.492 514.500, 95 514.500 C 79.933 514.500, 77.892 514.283, 71.500 512 L 64.500 509.500 64.500 516 C 64.500 519.575, 64.113 618.912, 63.640 736.750 L 62.779 951 72.140 951.010 C 77.288 951.016, 95.900 951.228, 113.500 951.481 C 131.100 951.734, 193.200 952.179, 251.500 952.470 C 309.800 952.761, 413.862 953.286, 482.750 953.637 L 608 954.276 608 748.997 L 608 543.719 673.750 544.398 C 750.492 545.191, 828.686 546.754, 834.725 547.616 C 838.613 548.171, 839.012 548.510, 839.725 551.860 C 840.722 556.543, 840.677 857.269, 839.672 912.326 L 838.908 954.151 841.164 953.826 C 843.208 953.530, 845.110 948.356, 861.499 898.500 L 879.579 843.500 907.452 843.234 L 935.325 842.968 934.619 750.734 C 933.605 618.059, 932.184 497.851, 931.624 497.290 C 931.358 497.025, 929.196 498.141, 926.820 499.771 C 911.578 510.226, 894.214 515.112, 872.424 515.077 C 828.817 515.007, 803.435 490.754, 791.609 437.857 C 788.498 423.941, 786.152 406.255, 785.093 388.726 L 784.293 375.500 784.147 385.699 M 406.500 551.676 C 260.494 553.287, 135.348 556.316, 120.737 558.594 C 118.439 558.952, 116.563 559.949, 115.917 561.154 C 113.740 565.223, 112.942 630.019, 113.962 720 C 114.513 768.675, 115.263 818.137, 115.628 829.915 L 116.292 851.329 242.396 850.665 C 419.924 849.730, 538.622 847.706, 540.759 845.577 C 544.161 842.189, 541.763 733.949, 534.996 585.500 C 534.444 573.400, 533.733 560.688, 533.417 557.250 L 532.841 551 479.670 551.228 C 450.427 551.353, 417.500 551.555, 406.500 551.676 M 678.093 648.774 L 660.686 649.049 661.359 669.977 C 661.728 681.487, 662.305 692.276, 662.641 693.953 L 663.250 697 717.125 697 L 771 697 771 673 L 771 649 754.750 648.956 C 745.813 648.931, 728.825 648.819, 717 648.706 C 705.175 648.593, 687.667 648.623, 678.093 648.774 M 718.166 658.730 L 714.832 659.139 715.449 667.320 C 715.789 671.819, 716.232 678.343, 716.435 681.818 C 716.638 685.294, 716.960 688.277, 717.152 688.448 C 717.820 689.045, 731.508 686.765, 732.433 685.903 C 734.109 684.341, 732.092 683.654, 726.496 683.880 C 723.473 684.003, 720.977 683.967, 720.949 683.801 C 719.667 676.194, 719.830 675, 722.157 674.986 C 725.967 674.964, 729 673.858, 729 672.490 C 729 670.783, 726.376 669.868, 723.530 670.582 C 720.918 671.237, 720.515 670.803, 719.548 666.294 L 718.860 663.087 723.802 662.432 C 729.518 661.674, 731.539 660.682, 730.569 659.112 C 729.904 658.035, 725.038 657.885, 718.166 658.730 M 695.585 671.750 C 695.883 678.763, 696.340 685.544, 696.601 686.821 C 697.458 691.025, 699.490 688.526, 699.793 682.896 C 700.062 677.906, 700.342 677.337, 703.133 676.101 C 707.082 674.353, 710.236 669.308, 709.448 666 C 708.335 661.334, 705.134 659, 699.846 659 L 695.042 659 695.585 671.750 M 759 666.375 C 759 670.431, 758.721 675.147, 758.379 676.854 L 757.758 679.958 754.091 675.229 C 752.074 672.628, 749.316 668.812, 747.962 666.748 C 744.974 662.195, 742.179 661.035, 740.320 663.578 C 739.321 664.943, 739.129 667.920, 739.553 675.450 C 740.199 686.917, 740.693 689.270, 742.335 688.719 C 743.098 688.463, 743.537 685.157, 743.607 679.140 C 743.666 674.087, 743.937 669.729, 744.211 669.456 C 744.484 669.183, 745.915 670.785, 747.392 673.016 C 748.869 675.247, 750.925 678.069, 751.962 679.286 C 752.999 680.504, 754.698 682.570, 755.736 683.877 C 758.003 686.731, 761.464 686.126, 762.378 682.717 C 763.160 679.801, 763.171 662.610, 762.393 660.582 C 762.059 659.712, 761.159 659, 760.393 659 C 759.328 659, 759 660.738, 759 666.375 M 674.615 663.088 C 671.236 665.746, 669 670.058, 669 673.916 C 669 677.109, 671.453 683.327, 673.865 686.250 C 677.200 690.290, 688.245 686.720, 689.452 681.212 C 690.269 677.484, 688.354 668.086, 686.265 665.570 C 681.921 660.336, 678.925 659.698, 674.615 663.088 M 699.058 664.684 C 699.089 665.683, 699.433 668.293, 699.822 670.485 L 700.529 674.471 702.824 672.176 C 704.460 670.540, 705.029 668.967, 704.809 666.691 C 704.553 664.046, 704.029 663.446, 701.750 663.184 C 699.628 662.939, 699.013 663.282, 699.058 664.684 M 675.082 668.368 C 672.510 672.528, 672.498 673.664, 674.964 679.417 C 676.999 684.163, 677.560 684.438, 682.999 683.350 L 686.249 682.700 685.695 677.332 C 685.060 671.182, 681.704 665, 679 665 C 677.990 665, 676.226 666.516, 675.082 668.368 M 975.178 855 C 974.004 857.475, 973.034 860.020, 973.022 860.656 C 973.010 861.292, 971.459 866.467, 969.575 872.156 C 967.692 877.845, 964.703 887.900, 962.935 894.500 C 959.545 907.149, 957.539 914.125, 950.286 938.500 C 946.071 952.665, 942.126 967.123, 939.831 976.821 C 938.768 981.309, 939.418 983.525, 941.047 980.971 C 942.085 979.344, 946.838 964.499, 948.082 959 C 948.518 957.075, 951.082 948.075, 953.781 939 C 956.480 929.925, 959.712 918.900, 960.963 914.500 C 962.214 910.100, 964.277 902.900, 965.546 898.500 C 977.323 857.679, 980.315 844.169, 975.178 855" stroke="none" fill="#f29f02" fill-rule="evenodd"/><path d="M 742.689 20.369 C 741.949 22.297, 737.513 22.472, 696.500 22.189 C 663.772 21.964, 649.555 21.461, 647.953 20.471 C 646.787 19.750, 643 20.827, 643 21.880 C 643 22.289, 629.232 22.733, 612.405 22.865 C 585.624 23.075, 581.501 22.903, 579.338 21.486 C 577.335 20.174, 576.580 20.104, 575.357 21.119 C 574.145 22.124, 573.691 22.118, 573.052 21.085 C 572.420 20.061, 570.747 20.022, 564.879 20.894 C 555.288 22.318, 495.410 22.851, 468.532 21.752 C 453.909 21.154, 446.950 21.221, 445.532 21.973 C 444.118 22.723, 435.360 22.815, 416.749 22.275 C 402.036 21.849, 389.999 21.820, 389.999 22.211 C 390 22.602, 387.793 22.827, 385.096 22.711 C 382.398 22.595, 380.364 22.221, 380.574 21.881 C 380.784 21.540, 379.504 21.559, 377.728 21.923 C 375.953 22.287, 372.788 22.129, 370.696 21.572 C 367.780 20.794, 366.704 20.861, 366.089 21.856 C 365.440 22.906, 356.870 23.025, 321.393 22.478 C 297.252 22.106, 277.050 21.836, 276.500 21.880 C 268.013 22.547, 231.491 22.702, 225.500 22.096 C 221.100 21.651, 217.050 21.588, 216.500 21.956 C 215.950 22.323, 210.100 22.715, 203.500 22.827 C 174.710 23.314, 160.059 27.446, 151.122 37.599 C 143.689 46.043, 144 41.429, 144 143.182 L 144 234 452.969 234 C 727.197 234, 761.873 233.831, 761.362 232.500 C 760.659 230.670, 758.207 230.833, 789.167 230.651 C 803.283 230.568, 815.122 230.212, 815.474 229.860 C 815.826 229.508, 816.090 212.310, 816.062 191.643 C 816.012 156.305, 816.113 154.104, 817.755 154.703 C 819.343 155.282, 819.333 155.148, 817.640 153.219 C 815.761 151.077, 815.673 146.153, 817.432 141.500 C 818.037 139.902, 817.971 139.801, 817.105 141 C 816.305 142.108, 816.063 139.636, 816.179 131.553 C 816.265 125.532, 816.654 121.482, 817.043 122.553 C 817.535 123.907, 817.978 122.725, 818.500 118.669 C 819.018 114.646, 818.868 112.121, 818.016 110.530 C 817.212 109.028, 817.015 106.525, 817.453 103.361 C 819.402 89.257, 818.752 62.798, 816.102 48.375 C 814.267 38.387, 808.168 29.724, 799.997 25.498 C 798.360 24.652, 796.784 24.003, 796.494 24.056 C 796.204 24.108, 794.527 23.835, 792.767 23.449 C 788.552 22.523, 783.006 22.176, 762.054 21.525 C 751.259 21.190, 744.354 20.573, 743.943 19.908 C 743.516 19.217, 743.068 19.381, 742.689 20.369 M 195.748 50.427 C 187.994 53.194, 182.009 59.520, 180.067 67 C 179.567 68.925, 177.723 97.275, 175.968 130 C 172.594 192.937, 172.604 193.641, 176.955 200.720 C 179.811 205.367, 186.355 209.725, 192.323 210.956 C 195.941 211.702, 284.999 211.945, 488 211.762 C 765.221 211.512, 778.665 211.418, 782.108 209.704 C 787.202 207.167, 791.959 202.253, 794.405 197 C 796.456 192.595, 796.500 191.280, 796.500 134.500 C 796.500 87.930, 796.230 75.735, 795.129 72.619 C 793.253 67.307, 787.414 61.093, 782 58.645 C 777.576 56.645, 772.795 56.547, 500 52.866 C 177.861 48.520, 200.581 48.702, 195.748 50.427 M 648.768 66.725 C 650.565 66.947, 653.265 66.943, 654.768 66.715 C 656.271 66.486, 654.800 66.304, 651.500 66.310 C 648.200 66.315, 646.971 66.502, 648.768 66.725 M 816.149 89.500 C 816.132 93.320, 816.333 93.989, 817 92.335 C 817.486 91.128, 817.496 88.916, 817.022 87.335 C 816.287 84.885, 816.169 85.180, 816.149 89.500 M 643.336 105 C 643.336 109.125, 643.513 110.813, 643.728 108.750 C 643.944 106.688, 643.944 103.313, 643.728 101.250 C 643.513 99.188, 643.336 100.875, 643.336 105 M 593.328 136.500 C 593.333 140.350, 593.513 141.802, 593.730 139.728 C 593.946 137.653, 593.943 134.503, 593.722 132.728 C 593.501 130.952, 593.324 132.650, 593.328 136.500 M 431.768 142.725 C 433.565 142.947, 436.265 142.943, 437.768 142.715 C 439.271 142.486, 437.800 142.304, 434.500 142.310 C 431.200 142.315, 429.971 142.502, 431.768 142.725 M 407.392 160 C 407.392 167.425, 407.549 170.463, 407.742 166.750 C 407.934 163.037, 407.934 156.963, 407.742 153.250 C 407.549 149.537, 407.392 152.575, 407.392 160 M 742.296 362.744 C 746.583 362.932, 753.333 362.931, 757.296 362.742 C 761.258 362.552, 757.750 362.399, 749.500 362.400 C 741.250 362.401, 738.008 362.556, 742.296 362.744 M 591.750 363.732 C 594.087 363.943, 597.913 363.943, 600.250 363.732 C 602.587 363.522, 600.675 363.349, 596 363.349 C 591.325 363.349, 589.413 363.522, 591.750 363.732 M 224.768 364.725 C 226.565 364.947, 229.265 364.943, 230.768 364.715 C 232.271 364.486, 230.800 364.304, 227.500 364.310 C 224.200 364.315, 222.971 364.502, 224.768 364.725 M 340.750 364.748 C 349.137 364.915, 362.863 364.915, 371.250 364.748 C 379.637 364.581, 372.775 364.444, 356 364.444 C 339.225 364.444, 332.363 364.581, 340.750 364.748 M 705.728 368.722 C 707.503 368.943, 710.653 368.946, 712.728 368.730 C 714.802 368.513, 713.350 368.333, 709.500 368.328 C 705.650 368.324, 703.952 368.501, 705.728 368.722 M 599.776 369.733 C 602.128 369.945, 605.728 369.942, 607.776 369.727 C 609.824 369.512, 607.900 369.339, 603.500 369.343 C 599.100 369.346, 597.424 369.522, 599.776 369.733 M 315.750 370.748 C 323.587 370.917, 336.412 370.917, 344.250 370.748 C 352.087 370.579, 345.675 370.441, 330 370.441 C 314.325 370.441, 307.912 370.579, 315.750 370.748 M 608 748.860 L 608 954 723.385 954 L 838.769 954 839.551 921.250 C 840.577 878.321, 840.728 556.573, 839.725 551.860 C 839.012 548.510, 838.613 548.171, 834.725 547.616 C 828.686 546.754, 750.492 545.191, 673.750 544.398 L 608 543.719 608 748.860 M 638 664.362 C 638 711.463, 638.112 750.014, 638.250 750.031 C 639.888 750.233, 804.481 752.852, 804.654 752.679 C 805.831 751.502, 810.052 584.669, 808.931 583.628 C 808.694 583.408, 778.125 582.501, 741 581.612 C 703.875 580.723, 665.513 579.710, 655.750 579.360 L 638 578.724 638 664.362 M 332.183 581.749 C 343.009 581.910, 361.009 581.910, 372.183 581.749 C 383.358 581.588, 374.500 581.456, 352.500 581.456 C 330.500 581.455, 321.358 581.587, 332.183 581.749 M 225.250 582.735 C 227.863 582.941, 232.137 582.941, 234.750 582.735 C 237.363 582.529, 235.225 582.360, 230 582.360 C 224.775 582.360, 222.637 582.529, 225.250 582.735 M 460.768 582.725 C 462.565 582.947, 465.265 582.943, 466.768 582.715 C 468.271 582.486, 466.800 582.304, 463.500 582.310 C 460.200 582.315, 458.971 582.502, 460.768 582.725 M 138.328 638.500 C 138.333 642.350, 138.513 643.802, 138.730 641.728 C 138.946 639.653, 138.943 636.503, 138.722 634.728 C 138.501 632.952, 138.324 634.650, 138.328 638.500 M 139.328 683.500 C 139.333 687.350, 139.513 688.802, 139.730 686.728 C 139.946 684.653, 139.943 681.503, 139.722 679.728 C 139.501 677.952, 139.324 679.650, 139.328 683.500 M 140.336 733 C 140.336 737.125, 140.513 738.813, 140.728 736.750 C 140.944 734.688, 140.944 731.313, 140.728 729.250 C 140.513 727.188, 140.336 728.875, 140.336 733 M 619.636 763.636 C 613.829 769.444, 617.754 779.455, 625.837 779.455 C 633.189 779.455, 637.803 772.387, 634.553 766.103 C 631.546 760.287, 624.200 759.073, 619.636 763.636 M 141.343 785.500 C 141.346 789.900, 141.522 791.576, 141.733 789.224 C 141.945 786.872, 141.942 783.272, 141.727 781.224 C 141.512 779.176, 141.339 781.100, 141.343 785.500 M 519.392 797 C 519.392 804.425, 519.549 807.462, 519.742 803.750 C 519.934 800.038, 519.934 793.962, 519.742 790.250 C 519.549 786.538, 519.392 789.575, 519.392 797 M 465.728 819.722 C 467.503 819.943, 470.653 819.946, 472.728 819.730 C 474.802 819.513, 473.350 819.333, 469.500 819.328 C 465.650 819.324, 463.952 819.501, 465.728 819.722 M 260.250 820.747 C 267.262 820.919, 278.738 820.919, 285.750 820.747 C 292.762 820.575, 287.025 820.435, 273 820.435 C 258.975 820.435, 253.238 820.575, 260.250 820.747 M 400.250 820.742 C 403.962 820.934, 410.038 820.934, 413.750 820.742 C 417.462 820.549, 414.425 820.392, 407 820.392 C 399.575 820.392, 396.538 820.549, 400.250 820.742 M 945.803 843.746 C 951.470 843.925, 960.470 843.924, 965.803 843.745 C 971.136 843.565, 966.500 843.419, 955.500 843.420 C 944.500 843.421, 940.136 843.568, 945.803 843.746" stroke="none" fill="#5ba698" fill-rule="evenodd"/><path d="M 534 66.362 C 525.518 68.205, 519.162 71.801, 512.352 78.611 C 498.078 92.885, 490.183 120.400, 493.005 146.042 C 494.986 164.052, 500.297 176.295, 510.613 186.635 C 519.371 195.414, 527.706 199.239, 539.332 199.815 C 551.207 200.403, 558.829 198.305, 567.864 191.959 C 578.824 184.262, 586.691 172.567, 590.707 158 C 593.477 147.956, 593.175 123.374, 590.142 112 C 583.846 88.385, 569.613 70.739, 553.470 66.534 C 546.609 64.747, 541.637 64.703, 534 66.362 M 310.528 67.017 C 287.051 71.177, 272.374 89.428, 276.137 109.783 C 276.714 112.905, 277.790 116.628, 278.528 118.055 C 280.554 121.972, 287.007 127.378, 293.079 130.245 C 296.060 131.653, 301.991 134.442, 306.258 136.444 C 319.392 142.605, 323.864 149.217, 322.684 160.732 C 321.181 175.406, 310.302 181.685, 293.635 177.499 L 286.770 175.775 284.354 178.191 C 283.025 179.520, 281.669 182.266, 281.340 184.292 C 280.802 187.607, 281.136 188.371, 284.666 191.901 C 290.058 197.293, 297.388 199.369, 309.062 198.811 C 316.719 198.445, 318.784 197.916, 325.476 194.610 C 334.752 190.025, 342.160 182.922, 347 173.972 C 350.218 168.022, 350.500 166.815, 350.500 159 C 350.500 147.271, 347.602 141.427, 336.085 129.930 C 329.002 122.859, 325.723 120.454, 317.341 116.183 C 311.754 113.336, 306.017 109.620, 304.591 107.926 C 300.983 103.638, 301.048 98.283, 304.750 94.751 C 308.300 91.364, 311.566 90.178, 320.894 88.888 C 329.313 87.724, 334.054 85.372, 335.828 81.478 C 338.345 75.954, 336.011 69.796, 330.767 68.126 C 325.845 66.559, 316.118 66.026, 310.528 67.017 M 385.244 68.509 C 379.770 72.423, 379.483 74.238, 379.708 103.500 C 380.005 141.890, 382.317 178.382, 385.157 189.500 C 388.094 200.998, 396.988 200.671, 403.551 188.824 L 406.500 183.500 406.837 163.389 L 407.174 143.279 414.738 142.639 C 418.898 142.288, 428.889 142, 436.940 142 L 451.578 142 452.750 160.332 C 453.394 170.414, 454.418 179.976, 455.024 181.582 C 458.033 189.543, 465.803 192.609, 469.869 187.439 C 473.713 182.552, 475.463 166.183, 476.543 125 C 477.304 95.973, 476.249 81.901, 472.808 75.215 C 467.778 65.442, 461.622 64.607, 457.248 73.106 C 455.364 76.767, 454.677 80.335, 453.875 90.602 C 453.322 97.696, 452.561 106.875, 452.185 111 L 451.500 118.500 435 119.676 C 425.925 120.323, 415.733 120.885, 412.351 120.926 L 406.201 121 405.524 108.250 C 404.410 87.266, 403.290 79.205, 400.966 75.445 C 396.845 68.777, 389.439 65.509, 385.244 68.509 M 640 67.632 C 634.103 68.757, 627.911 71.298, 627.023 72.957 C 624.194 78.243, 622.170 95.194, 621.042 123.056 C 620.106 146.168, 621.109 178.748, 623.033 187.718 C 625.463 199.048, 635.302 202.530, 640.417 193.871 C 641.846 191.451, 642.227 188.020, 642.463 175.406 C 642.623 166.885, 642.966 159.701, 643.225 159.441 C 643.485 159.182, 646.353 158.297, 649.599 157.475 C 663.741 153.893, 679.753 143.178, 687.353 132.212 C 699.145 115.196, 695.325 86.216, 679.808 74.976 C 672.546 69.715, 665.681 67.748, 653.500 67.437 C 647.450 67.282, 641.375 67.370, 640 67.632 M 538.860 91.518 C 532.177 93.647, 524.930 100.576, 521.409 108.200 C 518.700 114.067, 518.502 115.325, 518.532 126.500 C 518.569 140.280, 520.087 146.930, 526.087 159.613 C 532.062 172.243, 539.062 177.041, 548.150 174.734 C 556.782 172.543, 564.083 161.963, 568.201 145.676 C 573.178 125.996, 566.895 101.253, 554.906 93.319 C 550.204 90.207, 544.857 89.607, 538.860 91.518 M 647.250 92.114 L 643 93.118 643 114.059 C 643 130.152, 643.289 134.997, 644.250 134.987 C 646.260 134.967, 656.761 129.358, 660.846 126.122 C 668.879 119.759, 673.106 106.254, 669.311 99.071 C 668.315 97.185, 666.281 94.749, 664.791 93.657 C 661.612 91.326, 653.578 90.619, 647.250 92.114 M 733 363.079 C 678.825 363.452, 541.350 364.067, 427.500 364.447 C 194.197 365.224, 47.331 366.335, 46.337 367.330 C 42.867 370.800, 60.724 371.115, 228.500 370.548 C 494.756 369.647, 665.427 368.854, 665.981 368.513 C 666.266 368.338, 714.650 367.904, 773.500 367.550 C 892.547 366.833, 929.545 365.679, 922.453 362.905 C 920.262 362.048, 876.909 362.087, 733 363.079 M 363.500 552.679 C 269.848 554.043, 205.488 555.331, 171 556.530 C 129.258 557.981, 119.237 558.618, 117.069 559.957 C 114.421 561.594, 113.768 592.964, 114.381 689 C 114.717 741.525, 115.289 799.499, 115.652 817.831 L 116.312 851.162 211.406 850.544 C 425.137 849.157, 538.165 847.241, 540.429 844.966 C 542.047 843.340, 541.551 761.700, 539.600 708.500 C 537.748 658.021, 534.388 579.096, 533.396 562.750 L 532.743 552 456.121 552.223 C 413.980 552.345, 372.300 552.550, 363.500 552.679 M 231.322 582.089 C 184.423 582.939, 144.034 584.571, 139.584 585.796 C 136.692 586.592, 136.669 586.658, 136.863 593.550 C 138.125 638.207, 139.076 681.978, 140.024 739 C 140.651 776.675, 141.468 809.750, 141.841 812.500 L 142.518 817.500 147.009 818.161 C 159.893 820.059, 261.090 821.214, 366 820.661 C 476.672 820.078, 516.288 819.121, 518.410 816.980 C 519.955 815.422, 519.501 760.987, 517.579 717.500 C 513.267 619.905, 511.855 591.197, 511.208 588 L 510.500 584.500 503 583.795 C 477.102 581.360, 324.453 580.402, 231.322 582.089 M 706.226 610.259 C 705.059 611.502, 702.270 616.925, 700.028 622.311 C 697.787 627.696, 695.556 632.867, 695.070 633.801 C 694.585 634.736, 693.666 637.525, 693.030 640 C 692.393 642.475, 691.646 645.288, 691.369 646.250 C 690.992 647.559, 691.450 647.999, 693.183 647.996 C 694.967 647.993, 695.902 647.014, 697.250 643.736 C 698.212 641.395, 699 638.915, 699 638.226 C 699 637.537, 699.463 636.191, 700.028 635.236 C 700.594 634.281, 702.540 629.823, 704.354 625.329 C 708.694 614.575, 710.071 612.565, 712.544 613.377 C 715.883 614.475, 733 642.557, 733 646.938 C 733 647.522, 734.125 648, 735.500 648 C 736.875 648, 738 647.850, 738 647.667 C 738 645.582, 728.449 625.180, 725.516 621 C 716.435 608.060, 711.089 605.083, 706.226 610.259 M 387.487 649.319 C 383.107 651.890, 356.046 672.396, 348.645 678.753 C 344.324 682.464, 339.616 686.400, 338.182 687.500 C 336.748 688.600, 333.307 691.544, 330.537 694.042 C 324.593 699.402, 314.923 707.487, 310 711.212 C 308.075 712.668, 305.091 715.129, 303.368 716.680 C 301.646 718.231, 294.221 724.729, 286.868 731.120 C 279.516 737.511, 272.327 744.036, 270.893 745.620 C 269.459 747.204, 265.505 751.153, 262.108 754.395 C 252.929 763.153, 249.870 768.227, 255.036 766.125 C 256.929 765.355, 279 745.849, 279 744.946 C 279 744.588, 281.813 742.099, 285.250 739.415 C 288.688 736.730, 292.856 733.176, 294.514 731.517 C 299.999 726.026, 307.407 719.534, 314.500 714.004 C 318.350 711.003, 325.384 705.161, 330.130 701.023 C 343.801 689.106, 362.936 673.404, 380 660.103 C 384.125 656.888, 388.367 653.289, 389.426 652.105 C 391.771 649.486, 390.446 647.583, 387.487 649.319 M 696.667 659.667 C 695.816 660.517, 695.804 673.830, 696.646 681.888 C 697.437 689.459, 699.500 689.622, 699.500 682.115 C 699.500 677.548, 699.776 676.840, 701.753 676.345 C 705.039 675.523, 709 670.349, 709 666.878 C 709 662.749, 705.055 659, 700.712 659 C 698.854 659, 697.033 659.300, 696.667 659.667 M 716.293 660.250 C 715.484 661.312, 716.539 686.872, 717.429 687.762 C 717.573 687.907, 720.762 687.682, 724.514 687.262 C 733.518 686.256, 734.604 684, 726.083 684 L 720 684 719.850 680.500 C 719.768 678.575, 719.655 676.438, 719.600 675.750 C 719.506 674.571, 720.278 674.365, 725.750 674.106 C 729.980 673.906, 728.300 671.137, 723.750 670.807 C 719.720 670.516, 719.483 670.324, 719.176 667.105 C 718.814 663.317, 720.068 662.039, 724.168 662.015 C 727.469 661.996, 730 661.075, 730 659.893 C 730 658.482, 717.389 658.811, 716.293 660.250 M 759.545 669.983 C 758.703 682.980, 758.826 682.969, 750.275 670.765 C 744.204 662.102, 743.826 661.746, 741.590 662.604 C 740.280 663.107, 740.002 664.999, 740.014 673.357 C 740.028 683.910, 740.615 688, 742.117 688 C 742.602 688, 743 683.500, 743 678 C 743 667.555, 743.835 665.847, 746.460 670.923 C 747.291 672.530, 749.778 675.932, 751.986 678.483 C 754.194 681.034, 756 683.544, 756 684.061 C 756 685.287, 760.707 685.282, 761.466 684.055 C 762.431 682.494, 762.183 660.783, 761.188 659.788 C 760.625 659.225, 759.985 663.197, 759.545 669.983 M 675.763 662.545 C 670.026 665.700, 668.397 674.094, 671.923 682.321 C 674.747 688.909, 680.125 689.577, 686.898 684.179 C 689.116 682.411, 689.255 681.767, 688.756 675.552 C 688.316 670.069, 687.674 668.163, 685.256 665.168 C 681.891 660.999, 679.684 660.389, 675.763 662.545 M 699.015 666.750 C 699.024 669.362, 699.482 672.175, 700.033 673 C 700.880 674.267, 701.421 674.064, 703.518 671.694 C 706.467 668.361, 706.666 665.912, 704.171 663.655 C 700.684 660.499, 698.998 661.511, 699.015 666.750 M 675.589 667.077 C 672.532 670.709, 672.221 675.298, 674.680 680.456 C 676.586 684.452, 678.979 685.617, 681.983 684.009 C 683.115 683.403, 684.445 683.157, 684.939 683.462 C 686.647 684.518, 687.046 678.470, 685.588 673.625 C 684.240 669.145, 680.672 664, 678.915 664 C 678.509 664, 677.013 665.385, 675.589 667.077 M 362.367 714.055 C 359.140 717.433, 353.575 723.249, 350 726.978 C 341.712 735.624, 338.697 739.769, 339.388 741.569 C 340.416 744.246, 342.749 743.010, 347.538 737.250 C 350.167 734.087, 353.535 730.375, 355.023 729 C 360.238 724.179, 371.119 710.858, 370.749 709.747 C 369.904 707.211, 367.939 708.221, 362.367 714.055 M 622.020 762.244 C 616.565 765.093, 615.561 771.715, 619.923 776.077 C 625.737 781.891, 635 778.527, 635 770.601 C 635 763.947, 627.726 759.263, 622.020 762.244 M 879.099 846.250 C 878.631 847.487, 868.295 878.875, 856.131 916 C 843.966 953.125, 832.435 987.906, 830.506 993.291 C 828.578 998.676, 827 1003.531, 827 1004.081 C 827 1004.689, 830.190 1004.967, 835.147 1004.790 L 843.294 1004.500 847.397 992.500 L 851.500 980.500 886.995 980.237 C 906.517 980.092, 923.041 980.186, 923.715 980.444 C 924.662 980.807, 924.604 981.870, 923.465 985.100 C 922.652 987.402, 920.902 992.822, 919.575 997.143 L 917.162 1005 925.106 1005 C 934.192 1005, 932.504 1006.848, 938.526 990.306 C 941.106 983.219, 941.517 981.248, 940.317 981.709 C 939.030 982.202, 938.839 981.630, 939.215 978.403 C 939.753 973.780, 944.181 957.301, 950.476 936.500 C 952.972 928.250, 957.060 914.075, 959.559 905 C 964.872 885.705, 974.926 852.944, 975.977 851.500 C 976.378 850.950, 976.309 849.038, 975.824 847.250 L 974.943 844 927.447 844 L 879.950 844 879.099 846.250 M 975.669 864 C 974.236 868.675, 971.410 878.575, 969.390 886 C 961.750 914.074, 960.187 919.583, 959.031 922.500 C 958.378 924.150, 956.318 931.125, 954.454 938 C 952.590 944.875, 949.342 956.350, 947.235 963.500 L 943.405 976.500 971.059 976.220 L 998.712 975.940 1002.678 990.220 L 1006.645 1004.500 1014.784 1004.790 L 1022.924 1005.080 1021.991 1002.290 C 1021.478 1000.755, 1011.573 967.550, 999.981 928.500 C 988.388 889.450, 978.762 857.050, 978.589 856.500 C 978.416 855.950, 977.102 859.325, 975.669 864" stroke="none" fill="#072e36" fill-rule="evenodd"/><path d="M 234.750 22.737 C 237.637 22.939, 242.363 22.939, 245.250 22.737 C 248.137 22.535, 245.775 22.370, 240 22.370 C 234.225 22.370, 231.863 22.535, 234.750 22.737 M 345.280 22.736 C 347.909 22.943, 351.959 22.940, 354.280 22.731 C 356.601 22.521, 354.450 22.352, 349.500 22.355 C 344.550 22.358, 342.651 22.530, 345.280 22.736 M 195.748 50.427 C 187.994 53.194, 182.009 59.520, 180.067 67 C 179.567 68.925, 177.723 97.275, 175.968 130 C 172.594 192.937, 172.604 193.641, 176.955 200.720 C 179.811 205.367, 186.355 209.725, 192.323 210.956 C 195.941 211.702, 284.999 211.945, 488 211.762 C 765.221 211.512, 778.665 211.418, 782.108 209.704 C 787.202 207.167, 791.959 202.253, 794.405 197 C 796.456 192.595, 796.500 191.280, 796.500 134.500 C 796.500 87.930, 796.230 75.735, 795.129 72.619 C 793.253 67.307, 787.414 61.093, 782 58.645 C 777.576 56.645, 772.795 56.547, 500 52.866 C 177.861 48.520, 200.581 48.702, 195.748 50.427 M 530 66.819 C 513.451 72.304, 500.670 88.216, 494.914 110.500 C 491.872 122.274, 491.243 141.108, 493.477 153.513 C 499.400 186.409, 525.838 206.663, 553.462 199.468 C 570.367 195.065, 585.990 178.107, 590.917 158.814 C 595.696 140.097, 594.100 118.430, 586.568 99.783 C 580.865 85.664, 571.349 74.257, 560.736 68.820 C 555.240 66.004, 553.373 65.588, 545 65.311 C 537.823 65.073, 534.155 65.442, 530 66.819 M 305.813 67.470 C 293.811 70.775, 283.054 79.117, 278.294 88.810 C 275.831 93.827, 275.500 95.624, 275.500 104 C 275.500 112.277, 275.822 114.074, 278 117.960 C 281.388 124.004, 288.050 128.784, 300.816 134.330 C 317.936 141.768, 322 146.346, 322 158.189 C 322 165.585, 319.225 172.124, 314.679 175.441 C 312.360 177.134, 310.403 177.492, 303.679 177.453 C 299.181 177.428, 293.212 177.036, 290.417 176.584 C 285.610 175.806, 285.215 175.911, 283.167 178.515 C 280.341 182.108, 280.308 187.851, 283.095 191.393 C 288.092 197.747, 302.005 201.266, 313.646 199.121 C 328.194 196.441, 341.917 185.799, 348.252 172.288 C 350.887 166.669, 351.435 164.282, 351.439 158.423 C 351.447 148.157, 347.317 140.099, 336.599 129.465 C 330.121 123.038, 326.472 120.389, 318.368 116.232 C 308.085 110.956, 302 105.670, 302 102.012 C 302 99.068, 304.070 95.184, 306.482 93.604 C 309.686 91.505, 318.798 89, 323.231 89 C 331.049 89, 337 83.614, 337 76.539 C 337 69.041, 331.283 65.984, 317.500 66.113 C 313.650 66.149, 308.391 66.760, 305.813 67.470 M 640.716 67.090 C 637.535 67.556, 632.989 68.796, 630.615 69.846 C 626.762 71.550, 626.166 72.278, 625.060 76.628 C 619.670 97.830, 618.328 173.184, 623.038 190.186 C 625.162 197.855, 634.192 201.625, 638.759 196.750 C 642.336 192.932, 643 189.390, 643 174.135 L 643 159.400 648.960 158.169 C 657.883 156.326, 671.585 149.036, 679.067 142.151 C 692.287 129.985, 697.279 115.290, 694.024 98.124 C 689.652 75.071, 668.867 62.971, 640.716 67.090 M 384.655 68.133 C 383.640 68.723, 381.963 71.072, 380.927 73.353 C 379.281 76.977, 379.042 80.085, 379.025 98 C 378.990 134.683, 382.196 184.107, 385.108 191.795 C 386.609 195.755, 390.015 199, 392.671 199 C 396.099 199, 402.433 192.731, 405.058 186.742 C 407.182 181.894, 407.360 180.053, 407.427 162.252 L 407.500 143.004 420.596 143.002 C 427.799 143.001, 437.743 142.712, 442.694 142.361 L 451.695 141.722 452.270 158.111 C 453.002 178.989, 454.059 183.966, 458.610 187.962 C 460.513 189.633, 463.079 191, 464.312 191 C 473.892 191, 476.356 176.277, 476.444 118.500 C 476.500 81.675, 476.489 81.478, 474.163 76.800 C 469.207 66.830, 463.432 64.321, 458.615 70.045 C 457.206 71.720, 455.602 74.764, 455.051 76.809 C 453.787 81.505, 452.020 101.216, 452.009 110.750 C 452.001 116.977, 451.753 118.003, 450.250 118.021 C 449.288 118.033, 439.303 118.698, 428.061 119.499 C 416.820 120.300, 407.398 120.731, 407.123 120.457 C 406.849 120.182, 406.465 117.155, 406.270 113.729 C 404.224 77.800, 404.051 76.989, 397.062 70.675 C 392.793 66.818, 388.448 65.928, 384.655 68.133 M 538.453 92.272 C 529.688 95.804, 524.704 101.129, 520.808 111.122 C 513.629 129.540, 524.561 167.740, 538.702 173.649 C 543.152 175.508, 546.407 175.343, 550.943 173.029 C 563.105 166.825, 571.827 142.816, 569.036 123.225 C 566.267 103.779, 558.015 92.014, 546.678 91.349 C 543.830 91.181, 540.129 91.597, 538.453 92.272 M 646.403 92.686 C 644.430 93.075, 644.268 93.935, 643.657 107.299 C 643.300 115.110, 643.006 124.534, 643.004 128.242 L 643 134.984 647.250 133.312 C 657.430 129.308, 664.206 123.714, 667.617 116.500 C 671.843 107.559, 670.192 96.702, 664.128 93.566 C 661.277 92.092, 651.804 91.621, 646.403 92.686 M 233.642 235.750 C 231.585 243.064, 207.983 363.316, 208.503 363.835 C 209.208 364.538, 394.898 364.435, 395.602 363.731 C 395.979 363.354, 413 237.463, 413 235.054 C 413 234.323, 385.590 234, 323.567 234 C 239.248 234, 234.107 234.100, 233.642 235.750 M 586.199 271.244 C 586.583 291.735, 587.196 320.731, 587.561 335.680 L 588.224 362.859 596.862 363.180 C 601.613 363.356, 627.775 363.207, 655 362.849 C 682.225 362.490, 721.926 362.153, 743.225 362.099 L 781.950 362 781.294 358.750 C 780.934 356.962, 775.405 328.275, 769.008 295 L 757.377 234.500 671.439 234.244 L 585.500 233.987 586.199 271.244 M 715.911 368.422 C 715.679 368.654, 686.981 368.968, 652.137 369.120 C 602.602 369.336, 588.681 369.669, 588.306 370.645 C 587.556 372.600, 589.923 393.171, 592.548 407.500 C 601.648 457.187, 621.437 491.079, 650.037 505.959 C 662.304 512.340, 673.918 514.994, 689.590 514.997 C 710.226 515.001, 725.004 510.161, 739.609 498.612 C 761.808 481.058, 777.264 448.284, 782.483 407.699 C 783.993 395.956, 784.550 372.598, 783.393 369.582 C 782.856 368.183, 778.935 368, 749.560 368 C 731.285 368, 716.143 368.190, 715.911 368.422 M 209.614 370.819 L 205.727 371.137 206.435 386.319 C 209.219 445.980, 224.056 482.586, 253.176 501.634 C 267.226 510.825, 282.698 515.046, 302.425 515.071 C 328.036 515.104, 344.015 508.966, 359.157 493.282 C 380.072 471.618, 390.552 437.875, 394.505 379.467 L 395.116 370.433 304.308 370.467 C 254.364 370.485, 211.751 370.643, 209.614 370.819 M 932.405 511.500 C 932.406 520.300, 932.559 523.766, 932.745 519.203 C 932.930 514.639, 932.929 507.439, 932.742 503.203 C 932.555 498.966, 932.404 502.700, 932.405 511.500 M 64.320 516 C 64.320 519.575, 64.502 521.038, 64.723 519.250 C 64.945 517.462, 64.945 514.538, 64.723 512.750 C 64.502 510.962, 64.320 512.425, 64.320 516 M 638 664.362 C 638 711.463, 638.112 750.014, 638.250 750.031 C 639.888 750.233, 804.481 752.852, 804.654 752.679 C 805.831 751.502, 810.052 584.669, 808.931 583.628 C 808.694 583.408, 778.125 582.501, 741 581.612 C 703.875 580.723, 665.513 579.710, 655.750 579.360 L 638 578.724 638 664.362 M 205 583.045 C 169.712 583.884, 139.042 585.607, 137.811 586.821 C 137.431 587.194, 137.528 601, 138.026 617.500 C 138.840 644.494, 139.427 671.464, 141.633 783.167 L 142.297 816.833 145.399 817.396 C 167.029 821.322, 487.288 821.309, 514.750 817.381 L 519 816.773 518.990 792.136 C 518.984 778.586, 518.537 756.250, 517.996 742.500 C 516.352 700.725, 510.817 585.525, 510.435 585.121 C 508.325 582.893, 277.426 581.323, 205 583.045 M 933.413 611.500 C 933.414 621.400, 933.564 625.315, 933.746 620.199 C 933.928 615.084, 933.927 606.984, 933.744 602.199 C 933.561 597.415, 933.412 601.600, 933.413 611.500 M 706.242 610.250 C 704.510 612.038, 701.777 616.692, 700.168 620.592 C 698.559 624.493, 696.561 629.218, 695.726 631.092 C 694.892 632.967, 693.180 637.763, 691.922 641.750 L 689.635 649 675.160 649 L 660.684 649 661.358 669.953 C 661.728 681.476, 662.305 692.276, 662.641 693.953 L 663.250 697 717.125 697 L 771 697 771 673.025 L 771 649.050 754.948 648.775 L 738.896 648.500 734.664 638 C 728.008 621.487, 717.239 607, 711.619 607 C 710.395 607, 707.975 608.462, 706.242 610.250 M 709.251 615.744 C 708.210 617.260, 706.560 620.750, 705.585 623.500 C 704.609 626.250, 703.146 629.986, 702.333 631.803 C 701.521 633.620, 700.034 637.445, 699.031 640.303 C 698.027 643.161, 696.886 646.288, 696.496 647.250 C 695.835 648.880, 697.072 649, 714.460 649 L 733.135 649 732.441 646.750 C 729.795 638.163, 717.289 617.291, 712.982 614.275 C 711.381 613.154, 710.901 613.343, 709.251 615.744 M 63.470 688 C 63.470 721.275, 63.596 734.888, 63.749 718.250 C 63.903 701.613, 63.903 674.388, 63.749 657.750 C 63.596 641.113, 63.470 654.725, 63.470 688 M 377.092 656.250 C 371.044 660.788, 362.361 667.312, 357.797 670.749 C 353.234 674.186, 344.954 680.936, 339.399 685.749 C 333.843 690.562, 324.843 698.215, 319.399 702.755 C 283.351 732.814, 252 762.001, 252 765.499 C 252 769.914, 258.582 765.266, 276 748.549 C 279.025 745.645, 283.750 741.372, 286.500 739.053 C 289.250 736.734, 295.325 731.324, 300 727.030 C 304.675 722.737, 312.100 716.493, 316.500 713.155 C 320.900 709.817, 327.048 704.677, 330.162 701.732 C 333.276 698.788, 338.431 694.381, 341.618 691.940 C 344.804 689.498, 351.481 683.964, 356.456 679.642 C 361.430 675.320, 366.625 671.051, 368 670.155 C 369.375 669.259, 371.098 667.955, 371.828 667.256 C 372.559 666.558, 376.953 663.021, 381.594 659.398 C 389.823 652.972, 392.580 649.913, 391.298 648.631 C 389.844 647.177, 387.539 648.413, 377.092 656.250 M 934.413 709.500 C 934.414 719.400, 934.564 723.315, 934.746 718.199 C 934.928 713.084, 934.927 704.984, 934.744 700.199 C 934.561 695.415, 934.412 699.600, 934.413 709.500 M 362.644 712.812 C 346.851 729.107, 339 738.293, 339 740.477 C 339 745.499, 341.864 743.784, 352.860 732.179 C 364.970 719.398, 371 711.915, 371 709.667 C 371 706.209, 367.920 707.368, 362.644 712.812 M 935.426 821.500 C 935.427 833.600, 935.571 838.413, 935.747 832.195 C 935.923 825.977, 935.922 816.077, 935.746 810.195 C 935.569 804.313, 935.425 809.400, 935.426 821.500 M 67.784 951.738 C 70.689 951.941, 75.189 951.939, 77.784 951.734 C 80.378 951.528, 78 951.363, 72.500 951.365 C 67 951.368, 64.878 951.536, 67.784 951.738 M 86.728 951.722 C 88.503 951.943, 91.653 951.946, 93.728 951.730 C 95.802 951.513, 94.350 951.333, 90.500 951.328 C 86.650 951.324, 84.952 951.501, 86.728 951.722 M 101.728 951.722 C 103.503 951.943, 106.653 951.946, 108.728 951.730 C 110.802 951.513, 109.350 951.333, 105.500 951.328 C 101.650 951.324, 99.952 951.501, 101.728 951.722 M 219.776 952.733 C 222.128 952.945, 225.728 952.942, 227.776 952.727 C 229.824 952.512, 227.900 952.339, 223.500 952.343 C 219.100 952.346, 217.424 952.522, 219.776 952.733 M 243.250 952.745 C 248.062 952.928, 255.937 952.928, 260.750 952.745 C 265.563 952.561, 261.625 952.411, 252 952.411 C 242.375 952.411, 238.438 952.561, 243.250 952.745 M 413.280 953.736 C 415.909 953.943, 419.959 953.940, 422.280 953.731 C 424.601 953.521, 422.450 953.352, 417.500 953.355 C 412.550 953.358, 410.651 953.530, 413.280 953.736 M 441.250 953.746 C 447.163 953.923, 456.837 953.923, 462.750 953.746 C 468.663 953.569, 463.825 953.425, 452 953.425 C 440.175 953.425, 435.337 953.569, 441.250 953.746 M 662.250 954.750 C 682.462 954.901, 715.538 954.901, 735.750 954.750 C 755.962 954.598, 739.425 954.475, 699 954.475 C 658.575 954.475, 642.038 954.598, 662.250 954.750 M 830.280 1005.736 C 832.909 1005.943, 836.959 1005.940, 839.280 1005.731 C 841.601 1005.521, 839.450 1005.352, 834.500 1005.355 C 829.550 1005.358, 827.651 1005.530, 830.280 1005.736 M 920.750 1005.732 C 923.087 1005.943, 926.913 1005.943, 929.250 1005.732 C 931.587 1005.522, 929.675 1005.349, 925 1005.349 C 920.325 1005.349, 918.413 1005.522, 920.750 1005.732 M 1010.750 1005.732 C 1013.087 1005.943, 1016.913 1005.943, 1019.250 1005.732 C 1021.587 1005.522, 1019.675 1005.349, 1015 1005.349 C 1010.325 1005.349, 1008.413 1005.522, 1010.750 1005.732" stroke="none" fill="#ebd5c4" fill-rule="evenodd"/><path d="M 234.750 22.737 C 237.637 22.939, 242.363 22.939, 245.250 22.737 C 248.137 22.535, 245.775 22.370, 240 22.370 C 234.225 22.370, 231.863 22.535, 234.750 22.737 M 345.280 22.736 C 347.909 22.943, 351.959 22.940, 354.280 22.731 C 356.601 22.521, 354.450 22.352, 349.500 22.355 C 344.550 22.358, 342.651 22.530, 345.280 22.736 M 195.748 50.427 C 187.994 53.194, 182.009 59.520, 180.067 67 C 179.567 68.925, 177.723 97.275, 175.968 130 C 172.594 192.937, 172.604 193.641, 176.955 200.720 C 179.811 205.367, 186.355 209.725, 192.323 210.956 C 195.941 211.702, 284.999 211.945, 488 211.762 C 765.221 211.512, 778.665 211.418, 782.108 209.704 C 787.202 207.167, 791.959 202.253, 794.405 197 C 796.456 192.595, 796.500 191.280, 796.500 134.500 C 796.500 87.930, 796.230 75.735, 795.129 72.619 C 793.253 67.307, 787.414 61.093, 782 58.645 C 777.576 56.645, 772.795 56.547, 500 52.866 C 177.861 48.520, 200.581 48.702, 195.748 50.427 M 530 66.819 C 513.451 72.304, 500.670 88.216, 494.914 110.500 C 491.872 122.274, 491.243 141.108, 493.477 153.513 C 499.400 186.409, 525.838 206.663, 553.462 199.468 C 570.367 195.065, 585.990 178.107, 590.917 158.814 C 595.696 140.097, 594.100 118.430, 586.568 99.783 C 580.865 85.664, 571.349 74.257, 560.736 68.820 C 555.240 66.004, 553.373 65.588, 545 65.311 C 537.823 65.073, 534.155 65.442, 530 66.819 M 305.813 67.470 C 293.811 70.775, 283.054 79.117, 278.294 88.810 C 275.831 93.827, 275.500 95.624, 275.500 104 C 275.500 112.277, 275.822 114.074, 278 117.960 C 281.388 124.004, 288.050 128.784, 300.816 134.330 C 317.936 141.768, 322 146.346, 322 158.189 C 322 165.585, 319.225 172.124, 314.679 175.441 C 312.360 177.134, 310.403 177.492, 303.679 177.453 C 299.181 177.428, 293.212 177.036, 290.417 176.584 C 285.610 175.806, 285.215 175.911, 283.167 178.515 C 280.341 182.108, 280.308 187.851, 283.095 191.393 C 288.092 197.747, 302.005 201.266, 313.646 199.121 C 328.194 196.441, 341.917 185.799, 348.252 172.288 C 350.887 166.669, 351.435 164.282, 351.439 158.423 C 351.447 148.157, 347.317 140.099, 336.599 129.465 C 330.121 123.038, 326.472 120.389, 318.368 116.232 C 308.085 110.956, 302 105.670, 302 102.012 C 302 99.068, 304.070 95.184, 306.482 93.604 C 309.686 91.505, 318.798 89, 323.231 89 C 331.049 89, 337 83.614, 337 76.539 C 337 69.041, 331.283 65.984, 317.500 66.113 C 313.650 66.149, 308.391 66.760, 305.813 67.470 M 640.716 67.090 C 637.535 67.556, 632.989 68.796, 630.615 69.846 C 626.762 71.550, 626.166 72.278, 625.060 76.628 C 619.670 97.830, 618.328 173.184, 623.038 190.186 C 625.162 197.855, 634.192 201.625, 638.759 196.750 C 642.336 192.932, 643 189.390, 643 174.135 L 643 159.400 648.960 158.169 C 657.883 156.326, 671.585 149.036, 679.067 142.151 C 692.287 129.985, 697.279 115.290, 694.024 98.124 C 689.652 75.071, 668.867 62.971, 640.716 67.090 M 384.655 68.133 C 383.640 68.723, 381.963 71.072, 380.927 73.353 C 379.281 76.977, 379.042 80.085, 379.025 98 C 378.990 134.683, 382.196 184.107, 385.108 191.795 C 386.609 195.755, 390.015 199, 392.671 199 C 396.099 199, 402.433 192.731, 405.058 186.742 C 407.182 181.894, 407.360 180.053, 407.427 162.252 L 407.500 143.004 420.596 143.002 C 427.799 143.001, 437.743 142.712, 442.694 142.361 L 451.695 141.722 452.270 158.111 C 453.002 178.989, 454.059 183.966, 458.610 187.962 C 460.513 189.633, 463.079 191, 464.312 191 C 473.892 191, 476.356 176.277, 476.444 118.500 C 476.500 81.675, 476.489 81.478, 474.163 76.800 C 469.207 66.830, 463.432 64.321, 458.615 70.045 C 457.206 71.720, 455.602 74.764, 455.051 76.809 C 453.787 81.505, 452.020 101.216, 452.009 110.750 C 452.001 116.977, 451.753 118.003, 450.250 118.021 C 449.288 118.033, 439.303 118.698, 428.061 119.499 C 416.820 120.300, 407.398 120.731, 407.123 120.457 C 406.849 120.182, 406.465 117.155, 406.270 113.729 C 404.224 77.800, 404.051 76.989, 397.062 70.675 C 392.793 66.818, 388.448 65.928, 384.655 68.133 M 538.453 92.272 C 529.688 95.804, 524.704 101.129, 520.808 111.122 C 513.629 129.540, 524.561 167.740, 538.702 173.649 C 543.152 175.508, 546.407 175.343, 550.943 173.029 C 563.105 166.825, 571.827 142.816, 569.036 123.225 C 566.267 103.779, 558.015 92.014, 546.678 91.349 C 543.830 91.181, 540.129 91.597, 538.453 92.272 M 646.403 92.686 C 644.430 93.075, 644.268 93.935, 643.657 107.299 C 643.300 115.110, 643.006 124.534, 643.004 128.242 L 643 134.984 647.250 133.312 C 657.430 129.308, 664.206 123.714, 667.617 116.500 C 671.843 107.559, 670.192 96.702, 664.128 93.566 C 661.277 92.092, 651.804 91.621, 646.403 92.686 M 233.642 235.750 C 231.585 243.064, 207.983 363.316, 208.503 363.835 C 209.208 364.538, 394.898 364.435, 395.602 363.731 C 395.979 363.354, 413 237.463, 413 235.054 C 413 234.323, 385.590 234, 323.567 234 C 239.248 234, 234.107 234.100, 233.642 235.750 M 586.199 271.244 C 586.583 291.735, 587.196 320.731, 587.561 335.680 L 588.224 362.859 596.862 363.180 C 601.613 363.356, 627.775 363.207, 655 362.849 C 682.225 362.490, 721.926 362.153, 743.225 362.099 L 781.950 362 781.294 358.750 C 780.934 356.962, 775.405 328.275, 769.008 295 L 757.377 234.500 671.439 234.244 L 585.500 233.987 586.199 271.244 M 715.911 368.422 C 715.679 368.654, 686.981 368.968, 652.137 369.120 C 602.602 369.336, 588.681 369.669, 588.306 370.645 C 587.556 372.600, 589.923 393.171, 592.548 407.500 C 601.648 457.187, 621.437 491.079, 650.037 505.959 C 662.304 512.340, 673.918 514.994, 689.590 514.997 C 710.226 515.001, 725.004 510.161, 739.609 498.612 C 761.808 481.058, 777.264 448.284, 782.483 407.699 C 783.993 395.956, 784.550 372.598, 783.393 369.582 C 782.856 368.183, 778.935 368, 749.560 368 C 731.285 368, 716.143 368.190, 715.911 368.422 M 209.614 370.819 L 205.727 371.137 206.435 386.319 C 209.219 445.980, 224.056 482.586, 253.176 501.634 C 267.226 510.825, 282.698 515.046, 302.425 515.071 C 328.036 515.104, 344.015 508.966, 359.157 493.282 C 380.072 471.618, 390.552 437.875, 394.505 379.467 L 395.116 370.433 304.308 370.467 C 254.364 370.485, 211.751 370.643, 209.614 370.819 M 932.405 511.500 C 932.406 520.300, 932.559 523.766, 932.745 519.203 C 932.930 514.639, 932.929 507.439, 932.742 503.203 C 932.555 498.966, 932.404 502.700, 932.405 511.500 M 64.320 516 C 64.320 519.575, 64.502 521.038, 64.723 519.250 C 64.945 517.462, 64.945 514.538, 64.723 512.750 C 64.502 510.962, 64.320 512.425, 64.320 516 M 638 664.362 C 638 711.463, 638.112 750.014, 638.250 750.031 C 639.888 750.233, 804.481 752.852, 804.654 752.679 C 805.831 751.502, 810.052 584.669, 808.931 583.628 C 808.694 583.408, 778.125 582.501, 741 581.612 C 703.875 580.723, 665.513 579.710, 655.750 579.360 L 638 578.724 638 664.362 M 205 583.045 C 169.712 583.884, 139.042 585.607, 137.811 586.821 C 137.431 587.194, 137.528 601, 138.026 617.500 C 138.840 644.494, 139.427 671.464, 141.633 783.167 L 142.297 816.833 145.399 817.396 C 167.029 821.322, 487.288 821.309, 514.750 817.381 L 519 816.773 518.990 792.136 C 518.984 778.586, 518.537 756.250, 517.996 742.500 C 516.352 700.725, 510.817 585.525, 510.435 585.121 C 508.325 582.893, 277.426 581.323, 205 583.045 M 933.413 611.500 C 933.414 621.400, 933.564 625.315, 933.746 620.199 C 933.928 615.084, 933.927 606.984, 933.744 602.199 C 933.561 597.415, 933.412 601.600, 933.413 611.500 M 706.242 610.250 C 704.510 612.038, 701.777 616.692, 700.168 620.592 C 698.559 624.493, 696.561 629.218, 695.726 631.092 C 694.892 632.967, 693.180 637.763, 691.922 641.750 L 689.635 649 675.160 649 L 660.684 649 661.358 669.953 C 661.728 681.476, 662.305 692.276, 662.641 693.953 L 663.250 697 717.125 697 L 771 697 771 673.025 L 771 649.050 754.948 648.775 L 738.896 648.500 734.664 638 C 728.008 621.487, 717.239 607, 711.619 607 C 710.395 607, 707.975 608.462, 706.242 610.250 M 709.251 615.744 C 708.210 617.260, 706.560 620.750, 705.585 623.500 C 704.609 626.250, 703.146 629.986, 702.333 631.803 C 701.521 633.620, 700.034 637.445, 699.031 640.303 C 698.027 643.161, 696.886 646.288, 696.496 647.250 C 695.835 648.880, 697.072 649, 714.460 649 L 733.135 649 732.441 646.750 C 729.795 638.163, 717.289 617.291, 712.982 614.275 C 711.381 613.154, 710.901 613.343, 709.251 615.744 M 63.470 688 C 63.470 721.275, 63.596 734.888, 63.749 718.250 C 63.903 701.613, 63.903 674.388, 63.749 657.750 C 63.596 641.113, 63.470 654.725, 63.470 688 M 377.092 656.250 C 371.044 660.788, 362.361 667.312, 357.797 670.749 C 353.234 674.186, 344.954 680.936, 339.399 685.749 C 333.843 690.562, 324.843 698.215, 319.399 702.755 C 283.351 732.814, 252 762.001, 252 765.499 C 252 769.914, 258.582 765.266, 276 748.549 C 279.025 745.645, 283.750 741.372, 286.500 739.053 C 289.250 736.734, 295.325 731.324, 300 727.030 C 304.675 722.737, 312.100 716.493, 316.500 713.155 C 320.900 709.817, 327.048 704.677, 330.162 701.732 C 333.276 698.788, 338.431 694.381, 341.618 691.940 C 344.804 689.498, 351.481 683.964, 356.456 679.642 C 361.430 675.320, 366.625 671.051, 368 670.155 C 369.375 669.259, 371.098 667.955, 371.828 667.256 C 372.559 666.558, 376.953 663.021, 381.594 659.398 C 389.823 652.972, 392.580 649.913, 391.298 648.631 C 389.844 647.177, 387.539 648.413, 377.092 656.250 M 934.413 709.500 C 934.414 719.400, 934.564 723.315, 934.746 718.199 C 934.928 713.084, 934.927 704.984, 934.744 700.199 C 934.561 695.415, 934.412 699.600, 934.413 709.500 M 362.644 712.812 C 346.851 729.107, 339 738.293, 339 740.477 C 339 745.499, 341.864 743.784, 352.860 732.179 C 364.970 719.398, 371 711.915, 371 709.667 C 371 706.209, 367.920 707.368, 362.644 712.812 M 935.426 821.500 C 935.427 833.600, 935.571 838.413, 935.747 832.195 C 935.923 825.977, 935.922 816.077, 935.746 810.195 C 935.569 804.313, 935.425 809.400, 935.426 821.500 M 67.784 951.738 C 70.689 951.941, 75.189 951.939, 77.784 951.734 C 80.378 951.528, 78 951.363, 72.500 951.365 C 67 951.368, 64.878 951.536, 67.784 951.738 M 86.728 951.722 C 88.503 951.943, 91.653 951.946, 93.728 951.730 C 95.802 951.513, 94.350 951.333, 90.500 951.328 C 86.650 951.324, 84.952 951.501, 86.728 951.722 M 101.728 951.722 C 103.503 951.943, 106.653 951.946, 108.728 951.730 C 110.802 951.513, 109.350 951.333, 105.500 951.328 C 101.650 951.324, 99.952 951.501, 101.728 951.722 M 219.776 952.733 C 222.128 952.945, 225.728 952.942, 227.776 952.727 C 229.824 952.512, 227.900 952.339, 223.500 952.343 C 219.100 952.346, 217.424 952.522, 219.776 952.733 M 243.250 952.745 C 248.062 952.928, 255.937 952.928, 260.750 952.745 C 265.563 952.561, 261.625 952.411, 252 952.411 C 242.375 952.411, 238.438 952.561, 243.250 952.745 M 413.280 953.736 C 415.909 953.943, 419.959 953.940, 422.280 953.731 C 424.601 953.521, 422.450 953.352, 417.500 953.355 C 412.550 953.358, 410.651 953.530, 413.280 953.736 M 441.250 953.746 C 447.163 953.923, 456.837 953.923, 462.750 953.746 C 468.663 953.569, 463.825 953.425, 452 953.425 C 440.175 953.425, 435.337 953.569, 441.250 953.746 M 662.250 954.750 C 682.462 954.901, 715.538 954.901, 735.750 954.750 C 755.962 954.598, 739.425 954.475, 699 954.475 C 658.575 954.475, 642.038 954.598, 662.250 954.750 M 830.280 1005.736 C 832.909 1005.943, 836.959 1005.940, 839.280 1005.731 C 841.601 1005.521, 839.450 1005.352, 834.500 1005.355 C 829.550 1005.358, 827.651 1005.530, 830.280 1005.736 M 920.750 1005.732 C 923.087 1005.943, 926.913 1005.943, 929.250 1005.732 C 931.587 1005.522, 929.675 1005.349, 925 1005.349 C 920.325 1005.349, 918.413 1005.522, 920.750 1005.732 M 1010.750 1005.732 C 1013.087 1005.943, 1016.913 1005.943, 1019.250 1005.732 C 1021.587 1005.522, 1019.675 1005.349, 1015 1005.349 C 1010.325 1005.349, 1008.413 1005.522, 1010.750 1005.732" stroke="none" fill="#ebd5c4" fill-rule="evenodd"/><path d="M 908.778 231.494 C 906.337 233.936, 906.214 233.953, 902.927 232.314 C 899.526 230.617, 897.906 230.571, 852.500 230.894 C 848.100 230.925, 842.948 231.406, 841.051 231.962 C 838.513 232.707, 837.407 232.658, 836.862 231.776 C 836.311 230.885, 827.063 230.548, 800.810 230.462 C 781.390 230.398, 764.461 230.549, 763.190 230.796 C 761.737 231.080, 761.076 231.757, 761.409 232.623 C 761.747 233.505, 761.229 234, 759.969 234 C 758.886 234, 758 234.584, 758 235.297 C 758 237.174, 781.911 361.244, 782.359 361.692 C 782.565 361.899, 813.957 362.056, 852.117 362.042 C 915.504 362.018, 930.194 362.520, 921.948 364.429 C 915.710 365.873, 891.252 367, 866.105 367.002 C 827.962 367.005, 782.979 368.157, 783.572 369.116 C 783.842 369.554, 784.517 377.469, 785.071 386.706 C 787.991 435.366, 796.558 466.689, 812.731 487.833 C 819.882 497.183, 827.412 503.338, 837.500 508.078 C 847.851 512.942, 858.392 515.054, 872.424 515.077 C 901.483 515.123, 922.493 506.641, 941.075 487.360 C 950.109 477.987, 955.483 470.236, 961.807 457.462 C 968.466 444.012, 969.230 442.561, 969.952 442 C 971.375 440.895, 975.799 432.310, 976.411 429.465 C 976.770 427.796, 977.109 424.208, 977.163 421.492 C 977.218 418.776, 978.035 414.741, 978.978 412.527 C 980.736 408.403, 982.080 399.010, 982.060 391 C 982.029 378.474, 981.853 376.881, 980.443 376.340 C 979.649 376.035, 979 375.329, 979 374.771 C 979 374.157, 979.558 374.218, 980.411 374.926 C 982.536 376.689, 982.922 375.071, 981.821 369.014 C 980.792 363.355, 975.163 348.755, 973.782 348.167 C 973.352 347.983, 973 346.863, 973 345.677 C 973 342.436, 969.679 335.008, 968.229 335.004 C 967.529 335.002, 966.470 333.762, 965.875 332.250 C 964.032 327.565, 959.531 319.007, 958.908 319.003 C 958.583 319.002, 957.793 317.253, 957.154 315.119 C 956.514 312.984, 955.318 310.679, 954.495 309.996 C 953.673 309.314, 953 308, 953 307.078 C 953 306.155, 952.554 304.954, 952.010 304.410 C 951.378 303.778, 951.353 302.256, 951.940 300.210 C 952.663 297.688, 952.561 297, 951.462 297 C 950.609 297, 950.295 296.395, 950.658 295.449 C 951.007 294.540, 950.025 292.369, 948.284 290.199 C 946.651 288.165, 944.777 284.867, 944.120 282.871 C 943.463 280.875, 942.042 278.443, 940.962 277.466 C 939.883 276.489, 939 274.960, 939 274.068 C 939 273.175, 938.299 271.444, 937.442 270.221 C 936.586 268.998, 935.707 267.073, 935.489 265.944 C 934.978 263.290, 930.140 252.944, 928.501 251 C 927.806 250.175, 926.930 248.375, 926.555 247 C 926.179 245.625, 924.508 241.279, 922.841 237.342 C 919.787 230.130, 918.558 229.047, 913.386 229.014 C 912.224 229.006, 910.150 230.122, 908.778 231.494 M 66.942 260.116 C 44.272 305.431, 12.837 370.252, 10.377 376.759 C 3.684 394.460, 8.469 431.732, 21.156 460.719 C 32.963 487.697, 51.785 506.104, 74.382 512.772 C 81.836 514.972, 83.769 515.129, 98 514.690 C 116.042 514.135, 128.212 511.484, 140.091 505.522 C 159.535 495.764, 171.908 483.774, 183.496 463.461 C 195.078 443.158, 203.153 412.678, 205.530 380.296 L 206.205 371.092 128.353 370.707 C 85.534 370.496, 49.263 369.973, 47.750 369.545 C 36.223 366.284, 56.840 365.534, 170 365.102 L 207.500 364.959 220.555 299.480 L 233.610 234 156.809 234 L 80.007 234 66.942 260.116 M 404.871 298.751 C 400.126 334.363, 396.392 363.666, 396.574 363.870 C 397.166 364.529, 572.251 364.065, 580.364 363.383 L 588.228 362.722 587.626 348.611 C 587.295 340.850, 586.786 316.950, 586.497 295.500 C 586.207 274.050, 585.707 251.438, 585.386 245.250 L 584.803 234 499.151 234.001 L 413.500 234.001 404.871 298.751 M 561.760 369.573 C 561.445 369.889, 523.795 370.136, 478.093 370.124 L 395 370.102 395.018 382.801 C 395.046 401.973, 398.215 421.271, 404.493 440.500 C 407.822 450.697, 416.591 469.035, 421.820 476.735 C 434.374 495.222, 451.549 507.745, 471.500 512.959 C 482.646 515.872, 502.211 515.897, 513.500 513.012 C 554.761 502.469, 577.543 464.755, 586.576 392.038 C 587.359 385.734, 588 377.971, 588 374.788 L 588 369 575.167 369 C 568.108 369, 562.075 369.258, 561.760 369.573 M 113.320 622 C 113.320 625.575, 113.502 627.038, 113.723 625.250 C 113.945 623.462, 113.945 620.538, 113.723 618.750 C 113.502 616.962, 113.320 618.425, 113.320 622 M 113.343 666.500 C 113.346 670.900, 113.522 672.576, 113.733 670.224 C 113.945 667.872, 113.942 664.272, 113.727 662.224 C 113.512 660.176, 113.339 662.100, 113.343 666.500 M 542.360 817 C 542.360 822.225, 542.529 824.362, 542.735 821.750 C 542.941 819.138, 542.941 814.862, 542.735 812.250 C 542.529 809.638, 542.360 811.775, 542.360 817" stroke="none" fill="#f2532e" fill-rule="evenodd"/><path d="M 379.320 113 C 379.320 116.575, 379.502 118.037, 379.723 116.250 C 379.945 114.463, 379.945 111.537, 379.723 109.750 C 379.502 107.963, 379.320 109.425, 379.320 113 M 620.320 132 C 620.320 135.575, 620.502 137.037, 620.723 135.250 C 620.945 133.463, 620.945 130.537, 620.723 128.750 C 620.502 126.963, 620.320 128.425, 620.320 132 M 419.750 142.723 C 421.538 142.945, 424.462 142.945, 426.250 142.723 C 428.038 142.502, 426.575 142.320, 423 142.320 C 419.425 142.320, 417.962 142.502, 419.750 142.723 M 620.310 156.500 C 620.315 159.800, 620.502 161.029, 620.725 159.232 C 620.947 157.435, 620.943 154.735, 620.715 153.232 C 620.486 151.729, 620.304 153.200, 620.310 156.500 M 709.250 362.745 C 714.063 362.928, 721.938 362.928, 726.750 362.745 C 731.563 362.561, 727.625 362.411, 718 362.411 C 708.375 362.411, 704.438 362.561, 709.250 362.745 M 767.750 362.732 C 770.087 362.943, 773.913 362.943, 776.250 362.732 C 778.587 362.522, 776.675 362.349, 772 362.349 C 767.325 362.349, 765.413 362.522, 767.750 362.732 M 785.750 362.732 C 788.087 362.943, 791.913 362.943, 794.250 362.732 C 796.587 362.522, 794.675 362.349, 790 362.349 C 785.325 362.349, 783.413 362.522, 785.750 362.732 M 807.797 362.745 C 812.361 362.930, 819.561 362.929, 823.797 362.742 C 828.034 362.555, 824.300 362.404, 815.500 362.405 C 806.700 362.406, 803.234 362.559, 807.797 362.745 M 626.803 363.746 C 632.470 363.925, 641.470 363.924, 646.803 363.745 C 652.136 363.565, 647.500 363.419, 636.500 363.420 C 625.500 363.421, 621.136 363.568, 626.803 363.746 M 400.750 364.723 C 402.538 364.945, 405.462 364.945, 407.250 364.723 C 409.038 364.502, 407.575 364.320, 404 364.320 C 400.425 364.320, 398.962 364.502, 400.750 364.723 M 435.768 364.725 C 437.565 364.947, 440.265 364.943, 441.768 364.715 C 443.271 364.486, 441.800 364.304, 438.500 364.310 C 435.200 364.315, 433.971 364.502, 435.768 364.725 M 479.250 364.748 C 487.913 364.915, 502.087 364.915, 510.750 364.748 C 519.413 364.582, 512.325 364.445, 495 364.445 C 477.675 364.445, 470.587 364.582, 479.250 364.748 M 96.250 365.728 C 98.313 365.944, 101.688 365.944, 103.750 365.728 C 105.813 365.513, 104.125 365.336, 100 365.336 C 95.875 365.336, 94.188 365.513, 96.250 365.728 M 141.807 365.747 C 148.576 365.921, 159.376 365.920, 165.807 365.746 C 172.238 365.572, 166.700 365.431, 153.500 365.431 C 140.300 365.432, 135.038 365.574, 141.807 365.747 M 761.287 367.740 C 764.469 367.939, 769.419 367.937, 772.287 367.736 C 775.154 367.535, 772.550 367.372, 766.500 367.374 C 760.450 367.376, 758.104 367.541, 761.287 367.740 M 798.750 367.743 C 802.737 367.932, 809.263 367.932, 813.250 367.743 C 817.237 367.553, 813.975 367.397, 806 367.397 C 798.025 367.397, 794.763 367.553, 798.750 367.743 M 675.302 368.746 C 680.693 368.926, 689.243 368.925, 694.302 368.744 C 699.361 368.563, 694.950 368.416, 684.500 368.417 C 674.050 368.418, 669.911 368.566, 675.302 368.746 M 549.280 369.736 C 551.909 369.943, 555.959 369.940, 558.280 369.731 C 560.601 369.521, 558.450 369.352, 553.500 369.355 C 548.550 369.358, 546.651 369.530, 549.280 369.736 M 245.811 370.748 C 253.681 370.917, 266.281 370.917, 273.811 370.747 C 281.340 370.578, 274.900 370.439, 259.500 370.440 C 244.100 370.440, 237.940 370.579, 245.811 370.748 M 477.750 370.737 C 480.637 370.939, 485.363 370.939, 488.250 370.737 C 491.137 370.535, 488.775 370.370, 483 370.370 C 477.225 370.370, 474.863 370.535, 477.750 370.737 M 454.320 551.749 C 469.072 551.905, 492.922 551.905, 507.320 551.749 C 521.719 551.593, 509.650 551.465, 480.500 551.466 C 451.350 551.466, 439.569 551.593, 454.320 551.749 M 352.199 552.744 C 356.984 552.927, 365.084 552.928, 370.199 552.746 C 375.315 552.564, 371.400 552.414, 361.500 552.413 C 351.600 552.412, 347.415 552.561, 352.199 552.744 M 286.206 553.741 C 289.895 553.932, 296.195 553.934, 300.206 553.743 C 304.218 553.553, 301.200 553.396, 293.500 553.395 C 285.800 553.393, 282.518 553.549, 286.206 553.741 M 231.250 554.735 C 233.863 554.941, 238.137 554.941, 240.750 554.735 C 243.363 554.529, 241.225 554.360, 236 554.360 C 230.775 554.360, 228.637 554.529, 231.250 554.735 M 190.776 555.733 C 193.128 555.945, 196.728 555.942, 198.776 555.727 C 200.824 555.512, 198.900 555.339, 194.500 555.343 C 190.100 555.346, 188.424 555.522, 190.776 555.733 M 160.728 556.722 C 162.503 556.943, 165.653 556.946, 167.728 556.730 C 169.802 556.513, 168.350 556.333, 164.500 556.328 C 160.650 556.324, 158.952 556.501, 160.728 556.722 M 282.750 581.746 C 288.387 581.924, 297.613 581.924, 303.250 581.746 C 308.887 581.568, 304.275 581.422, 293 581.422 C 281.725 581.422, 277.113 581.568, 282.750 581.746 M 399.250 581.743 C 403.512 581.931, 410.488 581.931, 414.750 581.743 C 419.012 581.556, 415.525 581.402, 407 581.402 C 398.475 581.402, 394.988 581.556, 399.250 581.743 M 137.310 610.500 C 137.315 613.800, 137.502 615.029, 137.725 613.232 C 137.947 611.435, 137.943 608.735, 137.715 607.232 C 137.486 605.729, 137.304 607.200, 137.310 610.500 M 113.405 643.500 C 113.406 652.300, 113.559 655.766, 113.745 651.203 C 113.930 646.639, 113.929 639.439, 113.742 635.203 C 113.555 630.966, 113.404 634.700, 113.405 643.500 M 138.328 651.500 C 138.333 655.350, 138.513 656.802, 138.730 654.728 C 138.946 652.653, 138.943 649.503, 138.722 647.728 C 138.501 645.952, 138.324 647.650, 138.328 651.500 M 759.320 665 C 759.320 668.575, 759.502 670.038, 759.723 668.250 C 759.945 666.462, 759.945 663.538, 759.723 661.750 C 759.502 659.962, 759.320 661.425, 759.320 665 M 762.310 676.500 C 762.315 679.800, 762.502 681.029, 762.725 679.232 C 762.947 677.435, 762.943 674.735, 762.715 673.232 C 762.486 671.729, 762.304 673.200, 762.310 676.500 M 743.328 680.500 C 743.333 684.350, 743.513 685.802, 743.730 683.728 C 743.946 681.653, 743.943 678.503, 743.722 676.728 C 743.501 674.952, 743.324 676.650, 743.328 680.500 M 139.343 697.500 C 139.346 701.900, 139.522 703.576, 139.733 701.224 C 139.945 698.872, 139.942 695.272, 139.727 693.224 C 139.512 691.176, 139.339 693.100, 139.343 697.500 M 540.310 731.500 C 540.315 734.800, 540.502 736.029, 540.725 734.232 C 540.947 732.435, 540.943 729.735, 540.715 728.232 C 540.486 726.729, 540.304 728.200, 540.310 731.500 M 114.392 749 C 114.392 756.425, 114.549 759.462, 114.742 755.750 C 114.934 752.038, 114.934 745.962, 114.742 742.250 C 114.549 738.538, 114.392 741.575, 114.392 749 M 140.349 748 C 140.349 752.675, 140.522 754.587, 140.732 752.250 C 140.943 749.913, 140.943 746.087, 140.732 743.750 C 140.522 741.413, 140.349 743.325, 140.349 748 M 541.336 766 C 541.336 770.125, 541.513 771.813, 541.728 769.750 C 541.944 767.688, 541.944 764.313, 541.728 762.250 C 541.513 760.188, 541.336 761.875, 541.336 766 M 519.328 777.500 C 519.333 781.350, 519.513 782.802, 519.730 780.728 C 519.946 778.653, 519.943 775.503, 519.722 773.728 C 519.501 771.952, 519.324 773.650, 519.328 777.500 M 141.360 802 C 141.360 807.225, 141.529 809.362, 141.735 806.750 C 141.941 804.138, 141.941 799.862, 141.735 797.250 C 141.529 794.638, 141.360 796.775, 141.360 802 M 115.374 812.500 C 115.376 818.550, 115.541 820.896, 115.740 817.713 C 115.939 814.531, 115.937 809.581, 115.736 806.713 C 115.535 803.846, 115.372 806.450, 115.374 812.500 M 176.750 819.723 C 178.537 819.945, 181.463 819.945, 183.250 819.723 C 185.037 819.502, 183.575 819.320, 180 819.320 C 176.425 819.320, 174.963 819.502, 176.750 819.723 M 229.292 820.742 C 233.027 820.935, 238.877 820.934, 242.292 820.739 C 245.706 820.545, 242.650 820.387, 235.500 820.389 C 228.350 820.390, 225.556 820.550, 229.292 820.742 M 424.280 820.736 C 426.909 820.943, 430.959 820.940, 433.280 820.731 C 435.601 820.521, 433.450 820.352, 428.500 820.355 C 423.550 820.358, 421.651 820.530, 424.280 820.736 M 879.653 843.750 C 879.397 844.163, 887.583 844.385, 897.844 844.244 C 933.035 843.761, 936.470 843.422, 908.309 843.211 C 892.804 843.095, 879.909 843.337, 879.653 843.750 M 497.250 847.728 C 499.313 847.944, 502.688 847.944, 504.750 847.728 C 506.813 847.513, 505.125 847.336, 501 847.336 C 496.875 847.336, 495.188 847.513, 497.250 847.728 M 444.250 848.742 C 447.962 848.934, 454.038 848.934, 457.750 848.742 C 461.462 848.549, 458.425 848.392, 451 848.392 C 443.575 848.392, 440.538 848.549, 444.250 848.742 M 362.803 849.746 C 368.470 849.925, 377.470 849.924, 382.803 849.745 C 388.136 849.565, 383.500 849.419, 372.500 849.420 C 361.500 849.421, 357.136 849.568, 362.803 849.746 M 219.250 850.749 C 231.213 850.908, 250.788 850.908, 262.750 850.749 C 274.713 850.589, 264.925 850.459, 241 850.459 C 217.075 850.459, 207.288 850.589, 219.250 850.749 M 943.865 976.266 C 944.287 976.688, 956.978 976.912, 972.066 976.765 L 999.500 976.498 971.299 975.999 C 955.788 975.724, 943.443 975.845, 943.865 976.266 M 864.500 980.714 C 897.472 981.417, 924.770 981.433, 924.347 980.750 C 924.091 980.337, 907.596 980.098, 887.691 980.218 C 867.786 980.338, 857.350 980.561, 864.500 980.714" stroke="none" fill="#356e6d" fill-rule="evenodd"/><path d="M 933.360 585 C 933.360 590.225, 933.529 592.362, 933.735 589.750 C 933.941 587.138, 933.941 582.862, 933.735 580.250 C 933.529 577.638, 933.360 579.775, 933.360 585 M 63.419 609 C 63.419 619.725, 63.566 624.112, 63.746 618.750 C 63.925 613.388, 63.925 604.612, 63.746 599.250 C 63.566 593.888, 63.419 598.275, 63.419 609 M 934.360 683 C 934.360 688.225, 934.529 690.362, 934.735 687.750 C 934.941 685.138, 934.941 680.862, 934.735 678.250 C 934.529 675.638, 934.360 677.775, 934.360 683 M 935.382 788.500 C 935.384 795.100, 935.546 797.670, 935.741 794.211 C 935.937 790.752, 935.936 785.352, 935.738 782.211 C 935.540 779.070, 935.380 781.900, 935.382 788.500 M 195.206 952.741 C 198.895 952.932, 205.195 952.934, 209.206 952.743 C 213.218 952.553, 210.200 952.396, 202.500 952.395 C 194.800 952.393, 191.518 952.549, 195.206 952.741 M 381.750 953.745 C 386.837 953.927, 395.162 953.927, 400.250 953.745 C 405.337 953.564, 401.175 953.415, 391 953.415 C 380.825 953.415, 376.662 953.564, 381.750 953.745 M 558.250 954.748 C 567.462 954.913, 582.538 954.913, 591.750 954.748 C 600.962 954.583, 593.425 954.448, 575 954.448 C 556.575 954.448, 549.038 954.583, 558.250 954.748 M 614.776 954.733 C 617.128 954.945, 620.728 954.942, 622.776 954.727 C 624.824 954.512, 622.900 954.339, 618.500 954.343 C 614.100 954.346, 612.424 954.522, 614.776 954.733 M 786.750 954.748 C 795.138 954.915, 808.862 954.915, 817.250 954.748 C 825.638 954.581, 818.775 954.444, 802 954.444 C 785.225 954.444, 778.362 954.581, 786.750 954.748" stroke="none" fill="#f2e6dd" fill-rule="evenodd"/></svg>